<?xml version="1.0" encoding="UTF-8"?>
<!DOCTYPE svg PUBLIC "-//W3C//DTD SVG 1.1//EN" "http://www.w3.org/Graphics/SVG/1.1/DTD/svg11.dtd">
<!-- Creator: CorelDRAW 2020 (64-Bit) -->
<svg xmlns="http://www.w3.org/2000/svg" xml:space="preserve" width="22px" height="16px" version="1.1" style="shape-rendering:geometricPrecision; text-rendering:geometricPrecision; image-rendering:optimizeQuality; fill-rule:evenodd; clip-rule:evenodd"
viewBox="0 0 17.83 12.745"
 xmlns:xlink="http://www.w3.org/1999/xlink"
 xmlns:xodm="http://www.corel.com/coreldraw/odm/2003">
 <defs>
  <style type="text/css">
   <![CDATA[
    .fil0 {fill:#00ACC2;fill-rule:nonzero}
   ]]>
  </style>
 </defs>
 <g id="Layer_x0020_1">
  <metadata id="CorelCorpID_0Corel-Layer"/>
  <g>
   <path class="fil0" d="M14.969 2.549l-12.108 0 0 -2.549 12.108 0 0 0 0 2.549zm2.861 0.318l-2.536 0 0 0 0 -0.015 -0.001 -0.016 -0.003 -0.016 -0.002 -0.015 -0.004 -0.015 -0.003 -0.013 -0.005 -0.013 -0.006 -0.016 -0.006 -0.012 -0.007 -0.013 -0.008 -0.015 -0.009 -0.014 -0.008 -0.011 -0.01 -0.013 -0.011 -0.013 -0.011 -0.011 -0.011 -0.011 -0.013 -0.011 -0.013 -0.01 -0.012 -0.009 -0.014 -0.009 -0.015 -0.009 -0.014 -0.007 -0.013 -0.006 -0.016 -0.006 -0.014 -0.005 -0.014 -0.004 -0.016 -0.003 -0.015 -0.003 -0.018 -0.002 -0.016 -0.002 -0.017 0 0 -2.549 0.146 0.004 0.145 0.011 0.142 0.018 0.14 0.025 0.139 0.032 0.137 0.039 0.134 0.046 0.129 0.051 0.127 0.058 0.124 0.064 0.118 0.067 0.115 0.075 0.114 0.08 0.107 0.085 0.103 0.089 0.099 0.095 0.095 0.099 0.09 0.103 0.084 0.108 0.081 0.113 0.074 0.116 0.069 0.119 0.064 0.124 0.057 0.128 0.052 0.129 0.046 0.135 0.039 0.138 0.032 0.139 0.026 0.141 0.018 0.143 0.011 0.146 0.004 0.147 0 0zm-2.536 7.01l0 -7.01 2.536 0 0 7.01 0 0 -2.536 0zm-0.325 2.868l0 -2.549 0 0 0.017 -0.001 0.016 -0.001 0.018 -0.002 0.015 -0.003 0.016 -0.003 0.014 -0.005 0.014 -0.004 0.016 -0.007 0.013 -0.006 0.014 -0.007 0.015 -0.009 0.014 -0.009 0.012 -0.008 0.013 -0.01 0.013 -0.011 0.011 -0.011 0.011 -0.011 0.011 -0.013 0.01 -0.013 0.008 -0.012 0.009 -0.013 0.008 -0.015 0.007 -0.013 0.006 -0.013 0.006 -0.015 0.005 -0.013 0.003 -0.013 0.004 -0.015 0.002 -0.015 0.003 -0.017 0.001 -0.015 0 -0.016 2.536 0 -0.004 0.148 -0.011 0.146 -0.018 0.142 -0.026 0.142 -0.032 0.139 -0.039 0.138 -0.046 0.135 -0.052 0.129 -0.057 0.128 -0.064 0.124 -0.069 0.118 -0.074 0.117 -0.081 0.113 -0.084 0.107 -0.09 0.104 -0.095 0.099 -0.099 0.095 -0.103 0.089 -0.107 0.085 -0.114 0.08 -0.115 0.074 -0.118 0.068 -0.124 0.064 -0.127 0.058 -0.129 0.051 -0.134 0.046 -0.137 0.038 -0.139 0.033 -0.14 0.025 -0.142 0.018 -0.145 0.011 -0.146 0.004 0 0zm-12.108 -2.549l12.108 0 0 2.549 -12.108 0 0 0 0 -2.549zm-2.861 -0.319l2.536 0 0 0 0 0.016 0.001 0.015 0.003 0.017 0.002 0.015 0.004 0.015 0.003 0.013 0.005 0.013 0.006 0.015 0.006 0.013 0.007 0.013 0.008 0.015 0.009 0.013 0.008 0.012 0.01 0.013 0.011 0.013 0.011 0.011 0.011 0.011 0.013 0.011 0.013 0.01 0.012 0.008 0.014 0.009 0.015 0.009 0.014 0.007 0.013 0.006 0.016 0.007 0.014 0.004 0.014 0.005 0.016 0.003 0.015 0.003 0.018 0.002 0.016 0.001 0.017 0.001 0 2.549 -0.147 -0.004 -0.145 -0.011 -0.141 -0.018 -0.141 -0.025 -0.138 -0.033 -0.137 -0.038 -0.134 -0.046 -0.129 -0.051 -0.127 -0.058 -0.124 -0.064 -0.118 -0.068 -0.116 -0.074 -0.113 -0.08 -0.107 -0.085 -0.103 -0.089 -0.099 -0.095 -0.095 -0.099 -0.09 -0.104 -0.084 -0.107 -0.081 -0.113 -0.074 -0.117 -0.069 -0.118 -0.064 -0.124 -0.058 -0.128 -0.051 -0.129 -0.046 -0.135 -0.039 -0.138 -0.032 -0.139 -0.026 -0.142 -0.018 -0.142 -0.011 -0.146 -0.004 -0.148 0 0zm2.536 -7.01l0 7.01 -2.536 0 0 -7.01 0 0 2.536 0zm0.325 -2.867l0 2.549 0 0 -0.017 0 -0.016 0.002 -0.018 0.002 -0.015 0.003 -0.016 0.003 -0.014 0.004 -0.014 0.005 -0.016 0.006 -0.013 0.006 -0.014 0.007 -0.015 0.009 -0.014 0.009 -0.012 0.009 -0.013 0.01 -0.013 0.011 -0.011 0.011 -0.011 0.011 -0.011 0.013 -0.01 0.013 -0.008 0.011 -0.009 0.014 -0.008 0.015 -0.007 0.013 -0.006 0.012 -0.006 0.016 -0.005 0.013 -0.003 0.013 -0.004 0.015 -0.002 0.015 -0.003 0.016 -0.001 0.016 0 0.015 -2.536 0 0.004 -0.147 0.011 -0.146 0.018 -0.143 0.026 -0.141 0.032 -0.139 0.039 -0.138 0.046 -0.135 0.051 -0.129 0.058 -0.128 0.064 -0.124 0.069 -0.119 0.074 -0.116 0.081 -0.113 0.084 -0.108 0.09 -0.103 0.095 -0.099 0.099 -0.095 0.103 -0.089 0.107 -0.085 0.113 -0.08 0.116 -0.075 0.118 -0.067 0.124 -0.064 0.127 -0.058 0.129 -0.051 0.134 -0.046 0.137 -0.039 0.138 -0.032 0.141 -0.025 0.141 -0.018 0.145 -0.011 0.147 -0.004 0 0z"/>
  </g>
  <g>
   <path class="fil0" d="M15.234 2.113c0.597,-0.38 1.39,-0.206 1.771,0.386 0.382,0.593 0.208,1.381 -0.389,1.761l-1.382 -2.147zm-7.01 4.46l7.01 -4.46 1.382 2.147 -7.01 4.46 -1.382 0 0 -2.147zm1.382 2.147c-0.596,0.38 -1.389,0.206 -1.771,-0.386 -0.381,-0.593 -0.207,-1.381 0.389,-1.761l1.382 2.147zm-7.01 -6.607l7.01 4.46 -1.382 2.147 -7.01 -4.46 1.382 -2.147zm-1.382 2.147c-0.597,-0.38 -0.771,-1.168 -0.389,-1.761 0.381,-0.592 1.174,-0.766 1.771,-0.386l-1.382 2.147z"/>
  </g>
 </g>
</svg>
