<?xml version="1.0" encoding="UTF-8"?>
<!DOCTYPE svg PUBLIC "-//W3C//DTD SVG 1.1//EN" "http://www.w3.org/Graphics/SVG/1.1/DTD/svg11.dtd">
<!-- Creator: CorelDRAW 2020 (64-Bit) -->
<svg xmlns="http://www.w3.org/2000/svg" xml:space="preserve" width="21px" height="20px" version="1.1" style="shape-rendering:geometricPrecision; text-rendering:geometricPrecision; image-rendering:optimizeQuality; fill-rule:evenodd; clip-rule:evenodd"
viewBox="0 0 2.533 2.462"
 xmlns:xlink="http://www.w3.org/1999/xlink"
 xmlns:xodm="http://www.corel.com/coreldraw/odm/2003">
 <defs>
  <style type="text/css">
   <![CDATA[
    .fil0 {fill:#00ACC2}
   ]]>
  </style>
 </defs>
 <g id="Layer_x0020_1">
  <metadata id="CorelCorpID_0Corel-Layer"/>
  <path class="fil0" d="M2.407 1.781c-0.062,-0.034 -0.368,-0.199 -0.426,-0.223 -0.057,-0.023 -0.099,-0.035 -0.144,0.027 -0.044,0.062 -0.171,0.2 -0.21,0.241 -0.038,0.041 -0.076,0.045 -0.138,0.011 -0.062,-0.034 -0.264,-0.109 -0.498,-0.334 -0.182,-0.176 -0.302,-0.388 -0.337,-0.453 -0.034,-0.065 0,-0.098 0.033,-0.128 0.03,-0.028 0.066,-0.072 0.099,-0.108 0.033,-0.036 0.045,-0.062 0.068,-0.103 0.022,-0.042 0.013,-0.079 -0.001,-0.112 -0.015,-0.032 -0.13,-0.349 -0.178,-0.478 -0.048,-0.129 -0.102,-0.11 -0.139,-0.111 -0.037,-0.001 -0.079,-0.008 -0.122,-0.01 -0.042,-0.001 -0.111,0.012 -0.172,0.073 -0.06,0.061 -0.23,0.209 -0.241,0.521 -0.012,0.312 0.204,0.622 0.234,0.666 0.03,0.043 0.412,0.72 1.048,0.998 0.635,0.278 0.639,0.194 0.755,0.187 0.117,-0.006 0.381,-0.139 0.44,-0.285 0.058,-0.146 0.063,-0.273 0.048,-0.3 -0.015,-0.027 -0.057,-0.045 -0.119,-0.079z"/>
 </g>
</svg>
