<?xml version="1.0" encoding="UTF-8"?>
<!DOCTYPE svg PUBLIC "-//W3C//DTD SVG 1.1//EN" "http://www.w3.org/Graphics/SVG/1.1/DTD/svg11.dtd">
<!-- Creator: CorelDRAW 2020 (64-Bit) -->
<svg xmlns="http://www.w3.org/2000/svg" xml:space="preserve" width="290px" height="280px" version="1.1" style="shape-rendering:geometricPrecision; text-rendering:geometricPrecision; image-rendering:optimizeQuality; fill-rule:evenodd; clip-rule:evenodd"
viewBox="0 0 65.703 63.438"
 xmlns:xlink="http://www.w3.org/1999/xlink"
 xmlns:xodm="http://www.corel.com/coreldraw/odm/2003">
 <defs>
  <style type="text/css">
   <![CDATA[
    .fil0 {fill:#F7D6FF;fill-rule:nonzero}
   ]]>
  </style>
 </defs>
 <g id="Layer_x0020_1">
  <metadata id="CorelCorpID_0Corel-Layer"/>
  <path class="fil0" d="M38.941 2.171l11.163 8.112 11.617 8.441 0.017 -0.005c3.634,2.641 4.876,7.35 3.285,11.339l-4.246 13.069 -4.436 13.657 0.017 0.005c-1.342,4.13 -5.212,6.731 -9.339,6.647l-14.166 0 -14.359 0c-4.491,0 -8.263,-3.08 -9.321,-7.243l-4.245 -13.066 -4.437 -13.657 -0.018 0.004c-1.38,-4.249 0.356,-8.761 3.946,-11.066l11.182 -8.125 11.607 -8.434 -0.008 -0.012c3.613,-2.625 8.44,-2.369 11.741,0.334z"/>
 </g>
</svg>
