<?xml version="1.0" encoding="UTF-8"?>
<!DOCTYPE svg PUBLIC "-//W3C//DTD SVG 1.1//EN" "http://www.w3.org/Graphics/SVG/1.1/DTD/svg11.dtd">
<!-- Creator: CorelDRAW 2020 (64-Bit) -->
<svg xmlns="http://www.w3.org/2000/svg" xml:space="preserve" width="18px" height="13px" version="1.1" style="shape-rendering:geometricPrecision; text-rendering:geometricPrecision; image-rendering:optimizeQuality; fill-rule:evenodd; clip-rule:evenodd"
viewBox="0 0 2.393 1.74"
 xmlns:xlink="http://www.w3.org/1999/xlink"
 xmlns:xodm="http://www.corel.com/coreldraw/odm/2003">
 <defs>
  <style type="text/css">
   <![CDATA[
    .fil0 {fill:white;fill-rule:nonzero}
   ]]>
  </style>
 </defs>
 <g id="Layer_x0020_1">
  <metadata id="CorelCorpID_0Corel-Layer"/>
  <g>
   <path class="fil0" d="M0.217 1.088c-0.12,0 -0.217,-0.098 -0.217,-0.218 0,-0.12 0.097,-0.217 0.217,-0.217l0 0.435zm1.958 0l-1.958 0 0 -0.435 1.958 0 0 0.435zm0 -0.435c0.12,0 0.218,0.097 0.218,0.217 0,0.12 -0.098,0.218 -0.218,0.218l0 -0.435z"/>
  </g>
  <g>
   <path class="fil0" d="M0.217 0.435c-0.12,0 -0.217,-0.097 -0.217,-0.218 0,-0.12 0.097,-0.217 0.217,-0.217l0 0.435zm1.958 0l-1.958 0 0 -0.435 1.958 0 0 0.435zm0 -0.435c0.12,0 0.218,0.097 0.218,0.217 0,0.121 -0.098,0.218 -0.218,0.218l0 -0.435z"/>
  </g>
  <g>
   <path class="fil0" d="M0.217 1.305l0 0.435c-0.12,0 -0.217,-0.097 -0.217,-0.217 0,-0.121 0.097,-0.218 0.217,-0.218zm1.958 0l0 0.435 -1.958 0 0 -0.435 1.958 0zm0 0.435l0 -0.435c0.12,0 0.218,0.097 0.218,0.218 0,0.12 -0.098,0.217 -0.218,0.217z"/>
  </g>
 </g>
</svg>
