<svg width="120" height="120" viewBox="0 0 120 120" fill="none" xmlns="http://www.w3.org/2000/svg">
<path d="M55.2567 56.0713H68.1557L78.4537 67.834C78.7015 68.118 79.0374 68.482 79.4626 68.9253C79.8866 69.3692 80.311 69.8568 80.7362 70.3894C81.1605 70.9215 81.5503 71.4535 81.9044 71.9859C82.1393 72.3396 82.3278 72.7223 82.4798 73.124C82.5818 72.8833 82.7009 72.6466 82.833 72.4114C82.9912 72.1273 83.2301 71.7818 83.5487 71.3736C83.8673 70.9657 84.2829 70.4682 84.7968 69.8831C85.309 69.2981 85.9908 68.5613 86.8403 67.6741L97.8283 56.0713H109.984L92.9972 75.6047L109.979 95.3925L120 107.137H106.646L96.8192 95.3514L86.5212 83.5887C86.274 83.3053 85.9378 82.9413 85.5126 82.4974C85.0883 82.054 84.6639 81.5659 84.2387 81.0338C83.815 80.5012 83.4252 79.9691 83.0709 79.4371C82.8362 79.0833 82.6451 78.6984 82.4932 78.297C82.3911 78.5376 82.2746 78.7763 82.1425 79.0113C81.9838 79.2954 81.7451 79.6409 81.4262 80.0491C81.1076 80.457 80.692 80.9548 80.1787 81.5395C79.6659 82.1252 78.9847 82.8613 78.1352 83.7486L67.1472 95.3514H54.9917L71.9777 75.818L55.2567 56.0713L55.2567 56.0713Z" fill="#171B79"/>
<path fill-rule="evenodd" clip-rule="evenodd" d="M105.192 33.1548H115.507L115.508 43.4684C115.508 47.5129 112.189 50.8325 108.144 50.8325H97.8295L97.8284 40.5189C97.8284 36.4685 101.142 33.1548 105.192 33.1548Z" fill="#00B0E6"/>
<path fill-rule="evenodd" clip-rule="evenodd" d="M48.0453 95.3518H38.977H-2.67029e-05V93.295V85.5317V52.1435V38.3067V25.6284C-2.67029e-05 18.6067 5.74439 12.8623 12.7661 12.8623H15.9673H47.1362V22.6841H37.3147H27.4725H15.9672H14.7308C12.0322 22.6841 9.82228 24.8948 9.8217 27.5931L9.82 30.1781V30.2305V38.3067V52.1435V85.5317H47.5163L55.9632 75.8185L39.2425 56.0715L35.6349 52.1435H24.4533C21.81 52.1435 19.6415 49.9776 19.6415 47.3317V47.1352C19.6415 44.4894 21.8066 42.3234 24.4533 42.3234H37.1786V42.3248H39.6966L52.1413 56.0715L62.439 67.8344C62.687 68.1179 63.0227 68.4816 63.4476 68.9255C63.8719 69.3694 64.296 69.8572 64.7217 70.389C65.1461 70.9217 65.5359 71.4537 65.8902 71.9863C66.5923 73.0454 66.8965 74.3745 66.96 75.6337C67.0212 76.8594 66.7188 77.9575 66.128 79.012C65.9693 79.2955 65.7306 79.6413 65.4117 80.0489C65.0934 80.4574 64.677 80.9546 64.1642 81.54C63.6511 82.1253 62.9699 82.8615 62.1207 83.749L51.1324 95.3518H48.0452L48.0453 95.3518Z" fill="#171B79"/>
</svg>
