<?xml version="1.0" encoding="UTF-8"?>
<!DOCTYPE svg PUBLIC "-//W3C//DTD SVG 1.1//EN" "http://www.w3.org/Graphics/SVG/1.1/DTD/svg11.dtd">
<!-- Creator: CorelDRAW 2020 (64-Bit) -->
<svg xmlns="http://www.w3.org/2000/svg" xml:space="preserve" width="54px" height="124px" version="1.1" style="shape-rendering:geometricPrecision; text-rendering:geometricPrecision; image-rendering:optimizeQuality; fill-rule:evenodd; clip-rule:evenodd"
viewBox="0 0 3.484 8.009"
 xmlns:xlink="http://www.w3.org/1999/xlink"
 xmlns:xodm="http://www.corel.com/coreldraw/odm/2003">
 <defs>
  <style type="text/css">
   <![CDATA[
    .str0 {stroke:#00B0E6;stroke-width:0.258;stroke-linecap:round;stroke-linejoin:round;stroke-miterlimit:22.9256}
    .fil0 {fill:none}
   ]]>
  </style>
 </defs>
 <g id="Layer_x0020_1">
  <metadata id="CorelCorpID_0Corel-Layer"/>
  <g id="_2279692685248">
   <path class="fil0 str0" d="M1.014 1.117c0.052,0.937 -0.885,1.353 -0.885,2.497 0,1.318 0,2.272 0,3.59 0,0.2 0.104,0.624 0.52,0.624 0.815,0 1.262,0.052 2.078,0.052 0.624,0 0.572,-0.676 0.572,-0.988 0,-1.318 0.056,-2.116 0.056,-3.434 -0.05,-0.935 -0.844,-1.451 -0.929,-2.209 -0.005,-0.043 -0.008,-0.347 -0.008,-0.392"/>
   <path class="fil0 str0" d="M0.854 0.597c-0.022,0.512 1.759,0.217 1.82,0.156 0.052,-0.052 0.081,-0.51 -0.018,-0.53 -0.341,-0.066 -1.427,-0.144 -1.769,-0.052 0,0.013 -0.088,0.167 -0.078,0.182"/>
   <path class="fil0 str0" d="M0.333 3.022c0.361,-0.18 0.587,-0.22 0.747,-0.192 0.066,0.012 0.537,0.317 0.747,0.409 0.143,0.1 0.359,0.11 0.58,0.066 0.231,-0.046 0.646,-0.218 0.788,-0.412"/>
   <path class="fil0 str0" d="M0.619 3.563c0,1.216 0,2.095 0,3.311 0,0.184 0.095,0.575 0.479,0.575"/>
  </g>
 </g>
</svg>
