<?xml version="1.0" encoding="UTF-8"?>
<!DOCTYPE svg PUBLIC "-//W3C//DTD SVG 1.1//EN" "http://www.w3.org/Graphics/SVG/1.1/DTD/svg11.dtd">
<!-- Creator: CorelDRAW 2020 (64-Bit) -->
<svg xmlns="http://www.w3.org/2000/svg" xml:space="preserve" width="97px" height="96px" version="1.1" style="shape-rendering:geometricPrecision; text-rendering:geometricPrecision; image-rendering:optimizeQuality; fill-rule:evenodd; clip-rule:evenodd"
viewBox="0 0 11.761 11.687"
 xmlns:xlink="http://www.w3.org/1999/xlink"
 xmlns:xodm="http://www.corel.com/coreldraw/odm/2003">
 <defs>
  <style type="text/css">
   <![CDATA[
    .str0 {stroke:#00B0E6;stroke-width:0.485;stroke-linecap:round;stroke-linejoin:round;stroke-miterlimit:22.9256}
    .fil0 {fill:none}
   ]]>
  </style>
 </defs>
 <g id="Layer_x0020_1">
  <metadata id="CorelCorpID_0Corel-Layer"/>
  <g id="_2279706809136">
   <path class="fil0 str0" d="M4.51 2.617c-1.809,0.452 -3.372,3.23 -1.373,5.5 1.42,1.612 4.32,1.674 5.801,-0.13 1.328,-1.618 0.881,-4.317 -0.924,-5.279 -0.899,-0.479 -2.14,-0.654 -3.617,-0.544"/>
   <path class="fil0 str0" d="M5.979 0.243c0.544,0 0.765,0.611 1.283,0.751 0.517,0.14 1.12,-0.458 1.575,-0.193 0.455,0.265 0.276,0.993 0.647,1.363 0.37,0.371 1.204,0.337 1.47,0.792 0.265,0.455 -0.253,0.952 -0.114,1.469 0.14,0.518 0.679,0.927 0.679,1.47 0,0.543 -0.652,0.726 -0.792,1.244 -0.14,0.517 0.379,1.127 0.113,1.582 -0.265,0.455 -0.986,0.195 -1.356,0.566 -0.371,0.37 -0.192,1.113 -0.647,1.378 -0.455,0.265 -1.097,-0.162 -1.614,-0.022 -0.518,0.14 -0.725,0.802 -1.269,0.802 -0.543,0 -0.814,-0.775 -1.331,-0.915 -0.518,-0.14 -1.096,0.4 -1.551,0.135 -0.455,-0.265 -0.453,-1.008 -0.823,-1.378 -0.371,-0.371 -1.205,-0.224 -1.47,-0.679 -0.265,-0.455 0.479,-1.178 0.339,-1.696 -0.14,-0.517 -0.875,-0.636 -0.875,-1.179 0,-0.543 0.735,-0.903 0.875,-1.421 0.14,-0.517 -0.361,-1.007 -0.096,-1.462 0.266,-0.455 0.969,-0.315 1.34,-0.686 0.37,-0.37 0.255,-1.098 0.71,-1.363 0.454,-0.265 1.057,0.333 1.575,0.193 0.517,-0.14 0.789,-0.751 1.332,-0.751z"/>
   <path class="fil0 str0" d="M4.849 5.217c0.021,-0.103 0.024,-1.076 0,-1.167 0.057,-0.016 1.74,-0.052 1.81,-0.027 0.064,0.308 0.002,2.204 -0.029,2.627 -0.008,0.124 0.041,1.374 -0.044,1.373 -0.054,0.024 -0.955,-0.006 -1.113,-0.006 -0.129,-0.157 -0.059,-2.405 -0.059,-2.8"/>
  </g>
 </g>
</svg>
