<?xml version="1.0" encoding="UTF-8"?>
<!DOCTYPE svg PUBLIC "-//W3C//DTD SVG 1.1//EN" "http://www.w3.org/Graphics/SVG/1.1/DTD/svg11.dtd">
<!-- Creator: CorelDRAW 2020 (64-Bit) -->
<svg xmlns="http://www.w3.org/2000/svg" xml:space="preserve" width="80px" height="121px" version="1.1" style="shape-rendering:geometricPrecision; text-rendering:geometricPrecision; image-rendering:optimizeQuality; fill-rule:evenodd; clip-rule:evenodd"
viewBox="0 0 8 12.105"
 xmlns:xlink="http://www.w3.org/1999/xlink"
 xmlns:xodm="http://www.corel.com/coreldraw/odm/2003">
 <defs>
  <style type="text/css">
   <![CDATA[
    .str0 {stroke:#00B0E6;stroke-width:0.4;stroke-linecap:round;stroke-linejoin:round;stroke-miterlimit:22.9256}
    .fil0 {fill:none}
   ]]>
  </style>
 </defs>
 <g id="Layer_x0020_1">
  <metadata id="CorelCorpID_0Corel-Layer"/>
  <g id="_2279685608880">
   <path class="fil0 str0" d="M6.969 6.038c-1.972,1.466 -2.025,3.057 -2.274,4.599 -0.455,0.749 -1.461,0.736 -1.673,-0.181 -0.217,-1.382 0.221,-3.237 -1.69,-4.393"/>
   <path class="fil0 str0" d="M2.062 2.453c-0.004,-1.756 1.815,-3.029 3.207,-1.706 0.523,0.498 0.915,1.211 0.853,1.852"/>
   <path class="fil0 str0" d="M5.077 1.828c-0.09,-0.156 -0.22,-0.318 -0.4,-0.5"/>
   <path class="fil0 str0" d="M3.964 5.548c-0.129,0.151 -0.303,0.287 -0.528,0.403 -0.99,0.51 -3.214,0.289 -3.236,-1.215 -0.026,-1.772 1.806,-3.069 3.206,-1.738 0.221,0.21 0.418,0.458 0.567,0.722"/>
   <path class="fil0 str0" d="M3.044 3.898c-0.146,-0.205 -0.366,-0.38 -0.713,-0.566"/>
   <path class="fil0 str0" d="M6.939 3.085c0.874,0.83 1.379,2.258 0.03,2.953 -0.99,0.509 -3.213,0.289 -3.236,-1.216 -0.026,-1.772 1.806,-3.069 3.206,-1.737z"/>
   <path class="fil0 str0" d="M6.892 4.527c-0.063,-0.279 -0.225,-0.539 -0.544,-0.862"/>
   <path class="fil0 str0" d="M2.3 10.495c-0.314,0.113 -0.554,0.262 -0.663,0.441 -0.752,1.232 4.867,1.334 4.38,0.052 -0.133,-0.349 -0.582,-0.566 -1.146,-0.672"/>
  </g>
 </g>
</svg>
