<svg width="265" height="55" viewBox="0 0 265 55" fill="none" xmlns="http://www.w3.org/2000/svg">
<g clip-path="url(#clip0_614:24)">
<path fill-rule="evenodd" clip-rule="evenodd" d="M57.6054 6.21275H57.7809V21.4178H61.8347C63.2271 21.4178 64.3686 20.2774 64.3686 18.8839V6.21272H69.537V21.4178H73.5911C74.9835 21.4178 76.1247 20.2774 76.1247 18.8839V6.2127H81.0947V21.418C81.0947 24.2056 78.8924 26.4864 76.2009 26.4864H52.7116V11.2811C52.7116 8.49347 54.9136 6.2127 57.6054 6.2127V6.21275ZM192.387 13.8156H195.86H195.967C198.205 13.7926 198.816 13.063 200.249 11.4699L204.852 6.21276H211.509L202.879 16.4047L211.646 26.4865H205.372L199.838 20.6428C198.738 19.5039 197.938 18.9063 195.97 18.8848H195.86H192.387V26.4865H187.318V18.8848V13.8156V6.21251H192.387V13.8156ZM88.1906 13.815H91.6642H91.7711C94.0062 13.7923 94.6185 13.0644 96.048 11.4753L100.655 6.21244H107.313L98.6828 16.4044L107.45 26.4861H101.176L95.6423 20.6425C94.5413 19.5036 93.7417 18.906 91.7736 18.8842H91.6642H88.1906V26.4861H83.1214V18.8842V13.815V6.21191H88.1906V13.815ZM168.085 6.21247H179.235C182.337 6.21247 184.955 8.38324 185.645 11.2817H178.221H170.142H166.565V18.8834C166.565 20.2772 167.705 21.4172 169.099 21.4172H170.142H180.755H185.645C184.954 24.3143 182.336 26.4864 179.235 26.4864H168.085C164.461 26.4864 161.496 23.5217 161.496 19.8976V12.8013C161.496 9.1772 164.461 6.21244 168.085 6.21244V6.21247ZM247.261 26.4865H265.001V6.21247H259.931V21.4172H248.275C246.882 21.4172 245.741 20.2771 245.741 18.8833V6.21244H240.672V19.8976C240.672 23.5217 243.637 26.4864 247.261 26.4864V26.4865ZM220.032 26.4865H237.772V6.21247H232.702V21.4172H221.046C219.653 21.4172 218.512 20.2771 218.512 18.8833V6.21244H213.443V19.8976C213.443 23.5217 216.408 26.4864 220.032 26.4864V26.4865ZM114.994 26.4865H132.733V6.21247H127.664V21.4172H116.008C114.615 21.4172 113.474 20.2771 113.474 18.8833V6.21244H108.405V19.8976C108.405 23.5217 111.37 26.4864 114.994 26.4864V26.4865ZM141.906 6.21247H144.072H154.577H159.646V10.9619V14.8298C159.646 18.4539 156.681 21.419 153.057 21.419H148.044H143.329H140.387V26.4864H135.317V21.419V12.8013C135.317 9.17722 138.282 6.21246 141.906 6.21246V6.21247ZM142.92 11.2817H154.577V12.803C154.577 14.1962 153.437 15.3366 152.043 15.3366H140.387V13.8155C140.387 12.4217 141.527 11.2816 142.92 11.2816V11.2817ZM32.9452 6.21247H50.6845V26.4865H45.6156V21.419H31.4253V26.4865H26.3564V12.8013C26.3564 9.17723 29.3209 6.21247 32.9453 6.21247H32.9452ZM33.9592 11.2817H45.6155V12.803C45.6155 14.1962 44.4751 15.3366 43.0816 15.3366H31.4253V13.8155C31.4253 12.4217 32.5657 11.2816 33.9592 11.2816V11.2817Z" fill="white"/>
<path fill-rule="evenodd" clip-rule="evenodd" d="M89.7107 28.5142H107.45V48.7881H102.381V33.5834H90.7247C89.3312 33.5834 88.1908 34.7232 88.1908 36.117V48.7882H83.1216V35.1028C83.1216 31.4789 86.0866 28.5142 89.7107 28.5142ZM140.825 43.7195H155.015V33.5833H143.359C141.965 33.5833 140.825 34.7232 140.825 36.117V43.7195ZM160.084 43.7195H162.569V48.7881H160.084H155.015H140.825H135.756H135.755C134.39 48.7876 133.273 47.6704 133.273 46.3044V46.2032C133.273 44.8372 134.391 43.7201 135.755 43.7195V35.1027C135.755 31.4789 138.72 28.5142 142.345 28.5142H160.084V43.7195ZM116.066 28.5142H127.217C130.841 28.5142 133.806 31.4789 133.806 35.1027V42.199C133.806 45.8231 130.841 48.7881 127.217 48.7881H116.066C112.442 48.7881 109.477 45.8231 109.477 42.199V35.1027C109.477 31.4789 112.442 28.5142 116.066 28.5142ZM126.203 33.5833H114.547V41.185C114.547 42.5786 115.687 43.7186 117.08 43.7186H128.736V36.117C128.736 34.7232 127.596 33.5833 126.203 33.5833ZM63.3547 28.5142H74.5053C78.1294 28.5142 81.0945 31.4789 81.0945 35.1027V42.199C81.0945 45.8231 78.1295 48.7881 74.5053 48.7881H63.3547C59.7309 48.7881 56.7661 45.8231 56.7661 42.199V35.1027C56.7661 31.4789 59.7309 28.5142 63.3547 28.5142ZM64.369 33.5833H76.025V41.185C76.025 42.5786 74.8849 43.7186 73.4914 43.7186H61.8353V36.117C61.8353 34.7232 62.9752 33.5833 64.369 33.5833Z" fill="white"/>
<path d="M28.5194 28.514H35.1771L40.4921 34.5847C40.6199 34.7312 40.7934 34.9192 41.0128 35.1479C41.2316 35.3772 41.4508 35.6289 41.6702 35.9036C41.889 36.1783 42.0903 36.453 42.2731 36.7279C42.3941 36.9105 42.4916 37.1081 42.5699 37.315C42.6226 37.1908 42.6841 37.0687 42.7522 36.9473C42.8338 36.8008 42.9574 36.6225 43.1218 36.4119C43.2865 36.2013 43.5008 35.9444 43.7658 35.6423C44.0306 35.3404 44.3821 34.9605 44.8206 34.5025L50.4919 28.514H56.7655L47.9985 38.5957L56.7632 48.8084L61.9353 54.8702H55.0432L49.9712 48.7874L44.6562 42.7164C44.5284 42.5699 44.3549 42.3819 44.1355 42.1532C43.9167 41.9241 43.6975 41.6721 43.4781 41.3975C43.259 41.1228 43.0581 40.8481 42.8752 40.5734C42.7542 40.3909 42.6552 40.1919 42.5773 39.985C42.5243 40.1091 42.4642 40.2324 42.3959 40.354C42.3142 40.5006 42.1909 40.6786 42.0265 40.8895C41.8621 41.1001 41.6473 41.3567 41.3822 41.6588C41.118 41.9607 40.766 42.3408 40.3277 42.7986L34.6565 48.7874H28.3828L37.1498 38.7057L28.5194 28.514ZM24.7972 48.7874H20.1169H0V47.7258V43.719V26.4864V19.3448V12.8013C0 9.17716 2.96476 6.2124 6.58886 6.2124H8.24117H24.3284V11.2816H19.2589H14.1793H8.24117H7.60281C6.21014 11.2816 5.06948 12.4225 5.0692 13.8155L5.06835 15.1495V15.1767V19.3447V26.4864V43.719H24.5246L28.8843 38.7057L20.2542 28.514L18.3921 26.4864H12.621C11.2567 26.4864 10.1376 25.3684 10.1376 24.0029V23.9017C10.1376 22.536 11.255 21.418 12.621 21.418H19.1889V21.4189H20.4886L26.9116 28.514L32.2264 34.5849C32.3548 34.7312 32.5277 34.9189 32.7471 35.1479C32.9659 35.3772 33.185 35.6289 33.405 35.9033C33.6238 36.1786 33.8248 36.453 34.0076 36.7279C34.3702 37.2744 34.5272 37.9604 34.5598 38.6104C34.5916 39.2431 34.4357 39.8098 34.1304 40.354C34.0487 40.5003 33.9254 40.6789 33.7607 40.8892C33.5966 41.1001 33.3818 41.3566 33.117 41.6588C32.852 41.9607 32.5007 42.3408 32.0622 42.7989L26.391 48.7874H24.7973H24.7972Z" fill="white"/>
<path fill-rule="evenodd" clip-rule="evenodd" d="M256.381 0.129883H259.93L259.931 3.67858C259.931 5.07011 258.789 6.21247 257.397 6.21247H253.848V2.66377C253.848 1.27026 254.988 0.129883 256.381 0.129883Z" fill="white"/>
</g>
<defs>
<clipPath id="clip0_614:24">
<rect width="265" height="55" fill="white"/>
</clipPath>
</defs>
</svg>
