<?xml version="1.0" encoding="UTF-8"?>
<!DOCTYPE svg PUBLIC "-//W3C//DTD SVG 1.1//EN" "http://www.w3.org/Graphics/SVG/1.1/DTD/svg11.dtd">
<!-- Creator: CorelDRAW 2020 (64-Bit) -->
<svg xmlns="http://www.w3.org/2000/svg" xml:space="preserve" width="70px" height="70px" version="1.1" style="shape-rendering:geometricPrecision; text-rendering:geometricPrecision; image-rendering:optimizeQuality; fill-rule:evenodd; clip-rule:evenodd"
viewBox="0 0 3.828 3.828"
 xmlns:xlink="http://www.w3.org/1999/xlink"
 xmlns:xodm="http://www.corel.com/coreldraw/odm/2003">
 <defs>
  <style type="text/css">
   <![CDATA[
    .str0 {stroke:#00B0E6;stroke-width:0.219;stroke-linecap:round;stroke-linejoin:round;stroke-miterlimit:22.9256}
    .fil0 {fill:none}
    .fil1 {fill:#C4F5D7}
   ]]>
  </style>
 </defs>
 <g id="Layer_x0020_1">
  <metadata id="CorelCorpID_0Corel-Layer"/>
  <g id="_2287550219120">
   <rect class="fil0" width="3.828" height="3.828"/>
   <ellipse class="fil1" transform="matrix(0.794027 -0 -0.143919 0.901642 2.45144 2.27003)" rx="1.559" ry="1.668"/>
   <path class="fil0 str0" d="M1.367 0.273c-0.028,-0.024 -0.805,0.008 -0.946,0.008 0,0.357 -0.015,0.721 0.014,1.074 0.003,0.039 0.027,1.064 0.026,1.074 -0.012,0.112 -0.01,0.243 0.025,0.341 0.069,0.196 0.015,0.114 0.341,0.127 0.201,0.007 1.226,0.031 1.388,-0.007 0.039,-0.009 0.136,-0.013 0.181,-0.013 0,-0.425 0.027,-0.867 -0.007,-1.293 -0.018,-0.22 -0.02,-0.568 -0.01,-0.791 0.002,-0.053 -0.621,-0.517 -0.704,-0.517 0,0.214 -0.008,0.426 0.018,0.639 0.119,0.031 0.229,0.016 0.383,0.015m-1.064 0.984c0.03,0.026 0.344,0.3 0.378,0.303 0.021,0.013 0.309,-0.232 0.333,-0.276m-0.329 -0.683c0,0 0.019,0.907 -0.027,0.984"/>
  </g>
 </g>
</svg>
