<?xml version="1.0" encoding="UTF-8"?>
<!DOCTYPE svg PUBLIC "-//W3C//DTD SVG 1.1//EN" "http://www.w3.org/Graphics/SVG/1.1/DTD/svg11.dtd">
<!-- Creator: CorelDRAW 2020 (64-Bit) -->
<svg xmlns="http://www.w3.org/2000/svg" xml:space="preserve" width="61px" height="65px" version="1.1" style="shape-rendering:geometricPrecision; text-rendering:geometricPrecision; image-rendering:optimizeQuality; fill-rule:evenodd; clip-rule:evenodd"
viewBox="0 0 3.219 3.434"
 xmlns:xlink="http://www.w3.org/1999/xlink"
 xmlns:xodm="http://www.corel.com/coreldraw/odm/2003">
 <defs>
  <style type="text/css">
   <![CDATA[
    .str0 {stroke:#00B0E6;stroke-width:0.159;stroke-linecap:round;stroke-linejoin:round;stroke-miterlimit:22.9256}
    .fil1 {fill:none}
    .fil0 {fill:#FFCFE1}
   ]]>
  </style>
 </defs>
 <g id="Layer_x0020_1">
  <metadata id="CorelCorpID_0Corel-Layer"/>
  <ellipse class="fil0" transform="matrix(0.794027 -0 -0.143919 0.901642 2.00019 1.98016)" rx="1.507" ry="1.612"/>
  <g id="_2028055232896">
   <path class="fil1 str0" d="M2.285 0.28c0.901,0.65 -0.725,2.412 -1.094,2.521 -0.378,0.111 -0.991,-0.201 -1.101,-0.592 -0.12,-0.427 0.779,-1.818 1.165,-2.01 0.18,-0.09 0.457,-0.253 1.03,0.081z"/>
   <path class="fil1 str0" d="M2.139 0.473c0.682,0.493 -0.717,1.992 -0.998,2.074 -0.285,0.084 -0.75,-0.152 -0.833,-0.448 -0.091,-0.324 0.758,-1.542 1.051,-1.687 0.136,-0.068 0.346,-0.191 0.78,0.061z"/>
   <path class="fil1 str0" d="M2.579 0.686c0.106,0.36 0.212,0.783 0.148,0.952 -0.286,0.763 -1.006,1.528 -1.429,1.613 -0.334,0.067 -0.561,-0.041 -0.875,-0.281 -0.145,-0.11 -0.233,-0.275 -0.318,-0.613"/>
   <path class="fil1 str0" d="M0.74 2.166c0.211,0.127 0.719,0.022 0.732,-0.329 0.004,-0.132 -0.013,-0.411 -0.318,-0.33l0.015 -0.002c0.163,-0.121 0.567,-0.262 0.567,0.117m-0.595 -0.132c-0.435,-0.436 0.617,-1.129 0.889,-0.677m-0.867 0.719c0.042,0.064 0.12,0.252 -0.128,0.361 -0.16,0.07 -0.411,0.075 -0.343,-0.111m0.449 -0.271c0.086,-0.292 0.322,-0.534 0.641,-0.534 0.218,0 0.195,0.191 0.167,0.325 -0.007,0.003 -0.018,0 -0.025,-0.002"/>
  </g>
 </g>
</svg>
