<?xml version="1.0" encoding="UTF-8"?>
<!DOCTYPE svg PUBLIC "-//W3C//DTD SVG 1.1//EN" "http://www.w3.org/Graphics/SVG/1.1/DTD/svg11.dtd">
<!-- Creator: CorelDRAW 2020 (64-Bit) -->
<svg xmlns="http://www.w3.org/2000/svg" xml:space="preserve" width="70px" height="90px" version="1.1" style="shape-rendering:geometricPrecision; text-rendering:geometricPrecision; image-rendering:optimizeQuality; fill-rule:evenodd; clip-rule:evenodd"
viewBox="0 0 122.501 157.501"
 xmlns:xlink="http://www.w3.org/1999/xlink"
 xmlns:xodm="http://www.corel.com/coreldraw/odm/2003">
 <defs>
  <style type="text/css">
   <![CDATA[
    .str0 {stroke:#00B0E6;stroke-width:7;stroke-linecap:round;stroke-linejoin:round;stroke-miterlimit:22.9256}
    .fil0 {fill:none}
    .fil1 {fill:#D3EEFC}
   ]]>
  </style>
 </defs>
 <g id="Layer_x0020_1">
  <metadata id="CorelCorpID_0Corel-Layer"/>
  <rect class="fil0" width="122.501" height="157.501"/>
  <ellipse class="fil1" transform="matrix(0.794027 -0 -0.143919 0.901642 78.4465 90.1408)" rx="49.875" ry="53.375"/>
  <g id="_2028059114112">
   <path class="fil0 str0" d="M90.928 40.654c29.821,21.525 -23.988,79.855 -36.23,83.453 -12.494,3.673 -32.805,-6.656 -36.429,-19.589 -3.964,-14.141 25.781,-60.191 38.55,-66.55 5.959,-2.968 14.333,-3.14 19.895,-1.582"/>
   <path class="fil0 str0" d="M78.864 81.006c-10.765,15.284 -22.323,31.742 -31.873,32.241"/>
   <path class="fil0 str0" d="M92.984 36.649c-5.192,1.205 -14.593,-1.737 -15.432,-8.181"/>
   <path class="fil0 str0" d="M26.229 118.111c-1.585,2.749 -6.539,1.749 -7.483,3.809 -2.883,6.298 17.957,14.126 16.058,5.19 -0.505,-2.375 -0.968,-4.085 -0.907,-5.347"/>
   <path class="fil0 str0" d="M84.663 52.904c-2.303,-2.794 -3.477,-6.117 -2.607,-9.476 -1.272,4.399 -7.044,6.325 -8.802,5.92"/>
   <path class="fil0 str0" d="M91.623 51.288c-11.112,-15.758 1.898,-12.519 3.092,-16.246 2.458,-7.673 -18.445,-16.342 -17.488,-3.556 0.545,7.271 3.775,8.583 -6.9,11.101"/>
  </g>
 </g>
</svg>
