<?xml version="1.0" encoding="UTF-8"?>
<!DOCTYPE svg PUBLIC "-//W3C//DTD SVG 1.1//EN" "http://www.w3.org/Graphics/SVG/1.1/DTD/svg11.dtd">
<!-- Creator: CorelDRAW 2020 (64-Bit) -->
<svg xmlns="http://www.w3.org/2000/svg" xml:space="preserve" width="70px" height="90px" version="1.1" style="shape-rendering:geometricPrecision; text-rendering:geometricPrecision; image-rendering:optimizeQuality; fill-rule:evenodd; clip-rule:evenodd"
viewBox="0 0 7 9"
 xmlns:xlink="http://www.w3.org/1999/xlink"
 xmlns:xodm="http://www.corel.com/coreldraw/odm/2003">
 <defs>
  <style type="text/css">
   <![CDATA[
    .str0 {stroke:#00B0E6;stroke-width:0.4;stroke-linecap:round;stroke-linejoin:round;stroke-miterlimit:22.9256}
    .fil0 {fill:none}
    .fil1 {fill:#C4F5D7}
   ]]>
  </style>
 </defs>
 <g id="Layer_x0020_1">
  <metadata id="CorelCorpID_0Corel-Layer"/>
  <rect class="fil0" width="7" height="9"/>
  <ellipse class="fil1" transform="matrix(0.794027 -0 -0.143919 0.901642 4.48263 5.15087)" rx="2.85" ry="3.05"/>
  <g id="_2090563512304">
   <path class="fil0 str0" d="M0.365 5.764c0.125,-0.403 2.243,-4.202 2.523,-4.582 0.157,-0.214 0.221,-0.365 0.639,-0.153 0.178,0.091 2.207,1.113 2.216,1.112 0,0.331 -2.32,4.464 -2.501,4.947 -0.445,0 -2.328,-0.975 -2.877,-1.324z"/>
   <path class="fil0 str0" d="M3.024 7.131c0.026,0.181 0.104,0.54 0.162,0.879"/>
   <path class="fil0 str0" d="M5.68 2.478c0.046,0.227 0.153,0.579 0.204,0.879 0,0.332 -2.549,4.866 -2.548,4.882 -0.445,0 -2.025,-0.875 -2.575,-1.224 -0.113,-0.515 -0.192,-0.854 -0.224,-1.076"/>
   <g>
    <path class="fil0 str0" d="M3.585 6.145c-0.325,-0.18 -2.159,-0.968 -2.752,-1.251m4.302 -1.776c-0.325,-0.18 -2.005,-0.983 -2.599,-1.266m2.19 2.334c-0.325,-0.18 -2.101,-0.976 -2.694,-1.259m2.08 2.165c-0.325,-0.179 -2.028,-0.953 -2.621,-1.237"/>
    <path class="fil0 str0" d="M4.01 1.38c-0.432,0.917 -2.203,4.011 -2.626,4.889"/>
    <path class="fil0 str0" d="M4.858 1.826c-0.431,0.917 -2.203,4.011 -2.625,4.89"/>
   </g>
  </g>
 </g>
</svg>
